<svg width="100" height="100" viewBox="0 0 100 100" fill="none" xmlns="http://www.w3.org/2000/svg">
<g id="avatar">
<rect width="100" height="100" rx="50" fill="#D9D9D9" fill-opacity="0.5"/>
<path id="Vector" d="M43.789 25C40.3558 25 37.5468 27.8125 37.5468 31.25V37.5H25.6242C25.2497 37.5 25.0624 37.75 25.0624 38.0625V53.125C25.0624 54.875 26.4357 56.25 28.1835 56.25H71.8789C73.6267 56.25 75 54.875 75 53.125V38.0625C75 37.6875 74.7503 37.5 74.4382 37.5H62.5156V31.25C62.5156 27.8125 59.7066 25 56.2734 25H43.789ZM43.789 31.25H56.2734V37.5H43.789V31.25ZM25.0624 61.9375V74.4375C25.0624 74.75 25.3121 75 25.6242 75H74.3758C74.6879 75 74.9376 74.75 74.9376 74.4375V61.9375C73.9388 62.3125 72.9401 62.5 71.8165 62.5H28.1211C26.9975 62.5 25.9988 62.25 25 61.9375H25.0624Z" fill="black"/>
</g>
</svg>
